<svg width="38" height="38" viewBox="0 0 38 38" fill="none" xmlns="http://www.w3.org/2000/svg">
<path d="M36.6429 26.163V23.0714C36.6429 21.6317 36.0709 20.2509 35.0529 19.2328C34.0348 18.2148 32.654 17.6429 31.2143 17.6429C29.7745 17.6429 28.3938 18.2148 27.3757 19.2328C26.3577 20.2509 25.7857 21.6317 25.7857 23.0714V26.163C25.3745 26.3994 25.0327 26.7398 24.7945 27.15C24.5563 27.5601 24.4301 28.0257 24.4286 28.5V35.2857C24.4296 36.0053 24.716 36.695 25.2248 37.2038C25.7335 37.7126 26.4233 37.9989 27.1429 38H35.2857C36.0053 37.9989 36.695 37.7126 37.2038 37.2038C37.7126 36.695 37.9989 36.0053 38 35.2857V28.5C37.9984 28.0257 37.8722 27.5601 37.634 27.15C37.3958 26.7398 37.054 26.3994 36.6429 26.163ZM31.2143 20.3571C31.9338 20.3582 32.6236 20.6445 33.1324 21.1533C33.6412 21.6621 33.9275 22.3519 33.9286 23.0714V25.7857H28.5V23.0714C28.5011 22.3519 28.7874 21.6621 29.2962 21.1533C29.805 20.6445 30.4947 20.3582 31.2143 20.3571ZM27.1429 35.2857V28.5H35.2857V35.2857H27.1429ZM0 0H2.71429V5.42857H0V0ZM16.2857 0H19V5.42857H16.2857V0ZM21.7143 0H24.4286V5.42857H21.7143V0ZM0 8.14286H2.71429V19H0V8.14286ZM0 21.7143H2.71429V32.5714H0V21.7143ZM16.2857 21.7143H19V32.5714H16.2857V21.7143ZM5.42857 8.14286H8.14286V19H5.42857V8.14286ZM21.7143 8.14286H24.4286V16.2857H21.7143V8.14286ZM10.8571 32.5714H8.14286C7.4232 32.5707 6.73323 32.2845 6.22436 31.7756C5.71549 31.2668 5.42929 30.5768 5.42857 29.8571V24.4286C5.42929 23.7089 5.71549 23.0189 6.22436 22.5101C6.73323 22.0012 7.4232 21.715 8.14286 21.7143H10.8571C11.5768 21.715 12.2668 22.0012 12.7756 22.5101C13.2845 23.0189 13.5707 23.7089 13.5714 24.4286V29.8571C13.5707 30.5768 13.2845 31.2668 12.7756 31.7756C12.2668 32.2845 11.5768 32.5707 10.8571 32.5714ZM8.14286 24.4286V29.8571H10.8571V24.4286H8.14286ZM16.2857 19H13.5714C12.8518 18.9993 12.1618 18.7131 11.6529 18.2042C11.1441 17.6953 10.8579 17.0054 10.8571 16.2857V10.8571C10.8579 10.1375 11.1441 9.44752 11.6529 8.93865C12.1618 8.42977 12.8518 8.14358 13.5714 8.14286H16.2857C17.0054 8.14358 17.6953 8.42977 18.2042 8.93865C18.7131 9.44752 18.9993 10.1375 19 10.8571V16.2857C18.9993 17.0054 18.7131 17.6953 18.2042 18.2042C17.6953 18.7131 17.0054 18.9993 16.2857 19ZM13.5714 10.8571V16.2857H16.2857V10.8571H13.5714ZM10.8571 5.42857H8.14286C7.4232 5.42785 6.73323 5.14165 6.22436 4.63278C5.71549 4.12391 5.42929 3.43394 5.42857 2.71429V0H8.14286V2.71429H10.8571V0H13.5714V2.71429C13.5707 3.43394 13.2845 4.12391 12.7756 4.63278C12.2668 5.14165 11.5768 5.42785 10.8571 5.42857Z" fill="#561C24"/>
</svg>
